<?xml version="1.0" standalone="no"?>
<!DOCTYPE svg PUBLIC "-//W3C//DTD SVG 20010904//EN"
 "http://www.w3.org/TR/2001/REC-SVG-20010904/DTD/svg10.dtd">
<svg version="1.0" xmlns="http://www.w3.org/2000/svg"
 width="16.000000pt" height="16.000000pt" viewBox="0 0 16.000000 16.000000"
 preserveAspectRatio="xMidYMid meet">

<g transform="translate(0.000000,16.000000) scale(0.100000,-0.100000)"
fill="#000000" stroke="none">
<path d="M72 107 c-54 -55 -66 -87 -33 -87 28 0 123 111 109 127 -16 19 -19
17 -76 -40z m16 -27 c-31 -37 -48 -49 -48 -33 0 10 62 73 73 73 4 0 -7 -18
-25 -40z"/>
<path d="M12 141 c-9 -5 -12 -27 -10 -72 l3 -64 64 -3 c71 -3 81 3 81 56 0 45
-18 40 -22 -5 l-3 -38 -55 0 -55 0 0 55 0 55 38 3 c20 2 37 7 37 13 0 11 -60
12 -78 0z"/>
</g>
</svg>
