<?xml version="1.0" standalone="no"?>
<!DOCTYPE svg PUBLIC "-//W3C//DTD SVG 20010904//EN"
 "http://www.w3.org/TR/2001/REC-SVG-20010904/DTD/svg10.dtd">
<svg version="1.0" xmlns="http://www.w3.org/2000/svg"
 width="16.000000pt" height="16.000000pt" viewBox="0 0 16.000000 16.000000"
 preserveAspectRatio="xMidYMid meet">

<g transform="translate(0.000000,16.000000) scale(0.100000,-0.100000)"
fill="#000000" stroke="none">
<path d="M12 148 c-16 -16 -16 -120 0 -136 16 -16 120 -16 136 0 16 16 16 120
0 136 -16 16 -120 16 -136 0z m126 -10 c16 -16 16 -100 0 -116 -16 -16 -100
-16 -116 0 -16 16 -16 100 0 116 16 16 100 16 116 0z"/>
<path d="M59 98 c11 -15 11 -21 0 -35 -13 -16 -12 -17 4 -4 14 11 20 11 35 0
15 -13 16 -12 3 4 -11 14 -11 20 0 35 13 15 12 16 -3 3 -15 -11 -21 -11 -35 0
-16 13 -17 12 -4 -3z"/>
</g>
</svg>
